HIERARCHY
ROOT Hips
{
  OFFSET 37.5096 101.299 128.543
  CHANNELS 6 Xposition Yposition Zposition Zrotation Xrotation Yrotation
  JOINT RightUpLeg
  {
    OFFSET -8.9458 -8.66707 0.101652
    CHANNELS 3 Zrotation Xrotation Yrotation
    JOINT RightLeg
    {
      OFFSET 0 -44.4227 1.3727
      CHANNELS 3 Zrotation Xrotation Yrotation
      JOINT RightFoot
      {
        OFFSET 0.253549 -42.0924 -1.46059
        CHANNELS 3 Zrotation Xrotation Yrotation
        JOINT RightToes
        {
          OFFSET 0.04 -4.41509 8.4991
          CHANNELS 3 Zrotation Xrotation Yrotation
          End Site
          {
            OFFSET -0.08 -0.137448 9.77979
          }
        }
      }
    }
  }
  JOINT Spine
  {
    OFFSET 0 11.8905 0
    CHANNELS 3 Zrotation Xrotation Yrotation
    JOINT Spine1
    {
      OFFSET 0 25.6574 0.127663
      CHANNELS 3 Zrotation Xrotation Yrotation
      JOINT HEad
      {
        OFFSET 0 8.73416 0.011341
        CHANNELS 3 Zrotation Xrotation Yrotation
        End Site
        {
          OFFSET -0.29 12.7742 2.51395
        }
      }
      JOINT LeftShoulder1
      {
        OFFSET 8.99 -0.362252 -0.22
        CHANNELS 3 Zrotation Xrotation Yrotation
        JOINT LeftArm
        {
          OFFSET 10.2827 -0.00338 0.322123
          CHANNELS 3 Zrotation Xrotation Yrotation
          JOINT LeftForeArm
          {
            OFFSET 32.7669 0.099144 -1.42434
            CHANNELS 3 Zrotation Xrotation Yrotation
            JOINT LeftHand
            {
              OFFSET 27.5643 0.085362 1.02216
              CHANNELS 3 Zrotation Xrotation Yrotation
              End Site
              {
                OFFSET 16.7443 -0.6 1.50291
              }
            }
          }
        }
      }
      JOINT RightShoulder
      {
        OFFSET -8.99 -0.362252 -0.22
        CHANNELS 3 Zrotation Xrotation Yrotation
        JOINT RightArm
        {
          OFFSET -10.2827 -0.00338 0.322123
          CHANNELS 3 Zrotation Xrotation Yrotation
          JOINT RightForeArm
          {
            OFFSET -32.8971 0.099144 -1.42434
            CHANNELS 3 Zrotation Xrotation Yrotation
            JOINT RightHand
            {
              OFFSET -27.4921 0.085362 1.02216
              CHANNELS 3 Zrotation Xrotation Yrotation
              End Site
              {
                OFFSET -16.6312 -0.6 1.50291
              }
            }
          }
        }
      }
    }
  }
  JOINT LeftUpLeg
  {
    OFFSET 8.9458 -8.66707 0.101652
    CHANNELS 3 Zrotation Xrotation Yrotation
    JOINT LeftLeg
    {
      OFFSET 0 -44.4227 1.3727
      CHANNELS 3 Zrotation Xrotation Yrotation
      JOINT LeftFoot
      {
        OFFSET -0.253549 -42.0924 -1.46059
        CHANNELS 3 Zrotation Xrotation Yrotation
        JOINT LeftToes
        {
          OFFSET -0.04 -4.41509 8.4991
          CHANNELS 3 Zrotation Xrotation Yrotation
          End Site
          {
            OFFSET 0.08 -0.047448 9.77979
          }
        }
      }
    }
  }
}
MOTION
Frames:	12
Frame Time:	0.0166667
28.2532 95.8095 120.798 2.86887 14.495 179.49 -5.21339 10.2258 2.75853 10.0932 51.3348 -7.19257 4.60507 -4.23796 -1.6451 0.0462048 0.000533403 0.662642 2.59995 6.01943 7.25637 -1.46085 12.9122 23.6829 -7.01599 8.73164 10.8572 -3.97569e-016 3.97569e-016 6.36111e-015 -47.6586 -59.5428 17.1455 -33.5668 59.845 -91.3049 26.5313 10.9516 -34.26 20.8211 4.34381 18.0416 95.6772 -11.0276 93.0008 8.33918 5.84655 1.96221 -129.496 74.8096 78.4316 15.1319 -20.658 -2.22669 15.9709 37.5752 -43.4057 -14.6105 -6.5993 -1.37272 -1.31371e-009 1.56035e-007 -4.83539e-009 
28.9281 96.1751 121.403 2.69216 14.3813 179.431 -4.83408 9.93496 2.6927 10.1925 50.9781 -7.91495 3.95209 -4.56711 -1.5947 0.0462048 0.000533403 0.662642 2.4959 6.11758 7.2075 -1.53765 13.0734 23.3614 -7.42601 8.77422 11.1645 7.95139e-016 0 -0 -48.3311 -59.8275 16.0946 -33.0507 59.8403 -92.2183 26.7149 10.91 -34.1608 20.6922 4.33519 18.0489 96.0205 -12.0321 92.0366 10.2678 8.27945 4.43101 -121.38 75.9135 70.5829 15.1579 -21.0331 -1.91173 15.0797 37.1617 -41.0978 -14.3946 -3.9897 -1.02472 -1.31371e-009 1.56035e-007 -4.8354e-009 
29.5251 96.7037 121.948 2.42553 14.1085 179.244 -4.56918 9.46727 2.78471 10.1584 50.5009 -8.48177 3.37806 -4.69055 -1.55009 0.0462048 0.000533403 0.662642 2.30555 6.19666 7.18541 -1.70908 13.1696 23.0285 -7.96964 8.83864 11.5409 -3.97569e-016 -2.38542e-015 -0 -48.2912 -60.2239 15.9003 -32.376 59.8747 -93.5484 26.5655 10.9945 -34.042 20.4572 4.30493 18.0321 96.3743 -13.0943 90.4987 12.4939 11.1265 7.25997 -110.332 76.9104 59.8923 15.1579 -21.424 -1.52505 13.8444 36.844 -37.9038 -14.3264 -1.63825 -0.717112 -1.31371e-009 1.56035e-007 -4.8354e-009 
30.0373 97.3701 122.426 2.1072 13.7038 179.016 -4.43966 8.85659 2.97033 10.049 49.9255 -8.72532 3.07651 -4.55918 -1.50928 0.0462048 0.000533403 0.662642 2.04219 6.2576 7.17028 -1.93165 13.207 22.6452 -8.57488 8.87282 11.9465 -8.82781e-032 -1.59028e-015 -3.18055e-015 -47.7413 -60.7158 16.3119 -31.7262 59.9534 -95.0255 26.1404 11.1709 -33.9508 20.1654 4.26787 18.0203 96.6302 -14.2616 88.4591 14.9805 14.4143 10.3222 -96.3964 77.3921 46.32 15.1506 -21.8667 -1.06878 12.3457 36.7779 -34.1401 -14.3839 0.120867 -0.477892 -1.31371e-009 1.56035e-007 -4.83539e-009 
30.4678 98.1385 122.839 1.78095 13.1949 178.831 -4.43726 8.11381 3.16323 9.91386 49.3045 -8.59566 3.20284 -4.12479 -1.47256 0.0462048 0.000533403 0.662642 1.72624 6.31057 7.15264 -2.15301 13.2113 22.1976 -9.13601 8.80801 12.2864 3.97569e-016 -7.95139e-016 3.18055e-015 -47.2133 -61.1181 16.717 -31.083 59.992 -96.5708 25.6776 11.363 -33.8456 19.8466 4.22804 18.0113 96.6957 -15.5043 85.998 17.6194 18.0465 13.5988 -81.2183 76.9849 31.4278 15.1087 -22.3839 -0.495913 10.7871 37.1018 -30.5402 -14.5155 1.00144 -0.33444 -1.31371e-009 1.56035e-007 -4.83539e-009 
30.8278 98.9624 123.196 1.492 12.6094 178.751 -4.52966 7.23122 3.28679 9.80351 48.7275 -8.12651 3.8641 -3.42919 -1.44427 0.0462048 0.000533403 0.662642 1.38496 6.37188 7.1283 -2.32645 13.2225 21.6892 -9.54724 8.58699 12.4627 -3.97569e-016 7.95139e-016 3.18055e-015 -47.3564 -61.2363 16.3725 -30.2956 59.8916 -98.2219 25.4646 11.4835 -33.6624 19.5024 4.18068 17.984 96.565 -16.8189 83.2347 20.246 21.9434 17.1732 -67.1851 75.6042 17.6023 14.9523 -22.9884 0.295187 9.51121 37.8561 -28.031 -14.7665 1.05902 -0.277407 -1.31371e-009 1.56035e-007 -4.83539e-009 
31.1348 99.7905 123.515 1.27045 11.9733 178.807 -4.67819 6.19587 3.31096 9.75586 48.2811 -7.42156 5.07692 -2.54332 -1.4342 0.0462048 0.000533403 0.662642 1.03029 6.45495 7.08696 -2.43481 13.2747 21.1134 -9.75306 8.18113 12.4697 3.97569e-016 3.18055e-015 -0 -48.4751 -61.0748 14.8972 -29.3639 59.6399 -99.8592 25.5679 11.4981 -33.451 19.1542 4.13398 17.9595 96.2791 -18.294 80.316 22.6899 26.1149 21.126 -55.4963 73.4084 6.1189 14.6006 -23.6873 1.35317 8.81525 38.9855 -27.1549 -15.2277 0.763149 -0.249813 -1.31371e-009 1.56035e-007 -4.83539e-009 
31.4122 100.574 123.817 1.12965 11.3066 178.99 -4.84987 5.0055 3.24436 9.8102 47.9839 -6.66599 6.6658 -1.39719 -1.45962 0.0462048 0.000533403 0.662642 0.642247 6.56363 7.01172 -2.4897 13.3768 20.4402 -9.74785 7.59918 12.4093 0 1.59028e-015 -0 -50.3454 -60.8786 12.4711 -28.5664 59.3629 -101.108 25.7708 11.4524 -33.3442 18.8918 4.12291 18.0295 95.8148 -20.04 77.3492 24.8184 30.5686 25.4753 -46.2299 70.5895 -2.90277 14.0446 -24.4895 2.57083 8.77415 40.4696 -27.7944 -15.9881 0.455785 -0.210202 -1.31371e-009 1.56035e-007 -4.83539e-009 
31.685 101.273 124.115 1.07677 10.6221 179.277 -5.02619 3.67763 3.08602 10.0222 47.7989 -6.03556 8.32102 0.147601 -1.54099 0.0462048 0.000533403 0.662642 0.196406 6.6938 6.89413 -2.50848 13.5189 19.6492 -9.56065 6.87633 12.3879 8.82781e-032 1.59028e-015 -3.18055e-015 -52.6655 -60.9035 9.37448 -28.1831 59.2499 -101.672 25.8948 11.4078 -33.3476 18.7799 4.17281 18.2618 95.137 -22.0722 74.3837 26.5547 35.2452 30.1854 -39.2744 67.3196 -9.656 13.3673 -25.3815 3.70958 9.2209 42.3539 -29.367 -17.1338 -0.0276912 -0.183301 -1.31371e-009 1.56035e-007 -4.8354e-009 
31.9718 101.857 124.414 1.12781 9.92208 179.642 -5.20329 2.24432 2.79893 10.4426 47.709 -5.57848 9.84768 2.04365 -1.68524 0.0462048 0.000533403 0.662642 -0.27645 6.83543 6.73428 -2.48994 13.6888 18.7487 -9.2717 6.04351 12.4534 7.95139e-016 -3.18055e-015 -6.36111e-015 -55.4344 -61.2125 5.5946 -28.2131 59.4222 -101.591 26.0499 11.3764 -33.2529 18.7679 4.27278 18.6446 94.298 -24.3041 71.4578 27.8549 40.0427 35.2082 -34.464 63.78 -14.4547 12.7006 -26.2931 4.55438 9.84362 44.5695 -31.0835 -18.6216 -0.860684 -0.208804 -1.31371e-009 1.56035e-007 -4.8354e-009 
32.2836 102.302 124.71 1.30775 9.19403 -179.973 -5.39377 0.727499 2.3577 11.12 47.7415 -5.24008 11.2404 4.02453 -1.87767 0.0462048 0.000533403 0.662642 -0.68933 6.97734 6.53854 -2.42055 13.8804 17.7766 -8.99079 5.10266 12.6104 -0 0 3.18055e-015 -58.9122 -61.7016 0.867502 -28.3449 59.8628 -101.187 26.5104 11.3284 -32.7973 18.7376 4.39377 19.1383 93.4322 -26.6418 68.6569 28.6988 44.8792 40.4957 -31.4441 60.1343 -17.7425 12.1712 -27.1025 5.10181 10.3451 46.793 -32.1408 -20.1877 -1.66034 -0.247805 -1.31371e-009 1.56035e-007 -4.8354e-009 
32.6241 102.601 124.995 1.62552 8.4044 -179.661 -5.6345 -0.880329 1.78232 12.1141 47.9292 -4.93869 12.5125 5.79633 -2.09125 0.0462048 0.000533403 0.662642 -0.981598 7.11011 6.3323 -2.30833 14.0816 16.8085 -8.77738 4.03576 12.8166 7.95139e-016 1.59028e-015 3.18055e-015 -63.3979 -62.188 -5.09649 -28.1524 60.4612 -100.836 27.4662 11.2468 -31.8272 18.593 4.504 19.6829 92.7052 -29.0267 66.102 29.1181 49.7076 45.9832 -29.7392 56.4865 -19.9665 11.8504 -27.6938 5.55452 10.604 48.6025 -32.0659 -21.3436 -1.93956 -0.220172 -1.31371e-009 1.56035e-007 -4.8354e-009 
